<?xml version="1.0" encoding="UTF-8" standalone="no"?>
<!-- Created with Inkscape (http://www.inkscape.org/) -->

<svg
   width="22.476509mm"
   height="22.476511mm"
   viewBox="0 0 22.476509 22.476511"
   version="1.1"
   id="svg1"
   xmlns="http://www.w3.org/2000/svg"
   xmlns:svg="http://www.w3.org/2000/svg">
  <defs
     id="defs1" />
  <g
     id="layer1"
     transform="translate(-69.582603,-124.66156)">
    <g
       id="g4">
      <path
         style="font-size:16.553px;font-family:'Mr De Haviland';-inkscape-font-specification:'Mr De Haviland, Normal';fill:#ede6de;stroke:#ede6de;stroke-width:0.212"
         d="m 81.978117,129.19107 q -0.08276,0.23174 -3.045752,5.67768 0.629014,0.0662 1.208369,0.29795 2.15189,-1.34079 3.989273,-3.04575 1.853935,-1.72151 2.681585,-3.37681 0.01655,-0.16553 0.148977,-0.16553 0.148977,0 0.314507,0.0828 0.182083,0.0828 0.182083,0.19864 -0.645567,1.58908 -2.582267,3.3437 -1.936701,1.73807 -4.336886,3.16163 1.787724,0.96007 1.787724,3.39336 0,0.71178 -0.182083,1.30769 -0.182083,0.59591 -0.347613,0.82765 l -0.182083,0.23174 q -0.132424,0 -0.132424,-0.16553 l 0.09932,-0.31451 q 0.231742,-0.71178 0.231742,-1.35734 0,-2.51606 -1.887042,-3.57545 -0.910415,0.49659 -1.98636,0.99318 -1.357346,2.4664 -2.069125,3.67476 -0.115871,0.28141 -0.314507,0.36417 -0.182083,0.0828 -0.380719,0.0828 -0.198636,0 -0.198636,-0.0662 l 2.002913,-3.67476 q -1.092498,0.39727 -1.82083,0.39727 -0.943521,0 -0.943521,-0.72833 0,-0.72833 1.241475,-1.32424 1.258028,-0.61246 2.764351,-0.61246 l 2.929881,-5.37973 q 0.04966,-0.13242 0.297954,-0.21519 0.264848,-0.0993 0.397272,-0.0993 0.132424,0 0.132424,0.0662 z m -4.254121,5.99218 q -1.15871,0 -2.036019,0.43038 -0.877309,0.43038 -0.877309,1.02629 0,0.51314 0.645567,0.51314 0.66212,0 1.721512,-0.43038 l 0.82765,-1.52287 q -0.09932,-0.0166 -0.281401,-0.0166 z m 0.99318,0.0993 q -0.446931,0.82765 -0.546249,1.00973 0.513143,-0.24829 1.373899,-0.76143 -0.397272,-0.16553 -0.82765,-0.2483 z"
         id="text3"
         aria-label="K" />
      <path
         style="fill:#c2394b;fill-opacity:1;stroke:#c2394b;stroke-width:0.0975467;stroke-dasharray:none;stroke-opacity:1"
         d="m 73.94403,143.23698 c 5.641121,-1.25006 12.953854,-0.99784 13.68302,-0.80882"
         id="path16-6" />
    </g>
  </g>
</svg>
