<?xml version="1.0" encoding="UTF-8" standalone="no"?>
<!-- Created with Inkscape (http://www.inkscape.org/) -->

<svg
   width="92mm"
   height="92mm"
   viewBox="0 0 92 92"
   version="1.1"
   id="svg1"
   xmlns="http://www.w3.org/2000/svg"
   xmlns:svg="http://www.w3.org/2000/svg">
  <defs
     id="defs1" />
  <g
     id="layer1"
     transform="translate(-97.219723,-60.636434)">
    <path
       style="fill:#c2394b;fill-opacity:1;stroke:none;stroke-width:9.3"
       id="path1"
       d="m 101.19595,125.34477 a 46,46 0 0 1 23.3056,-60.727734 46,46 0 0 1 60.73319,23.291393 46,46 0 0 1 -23.27717,60.738641 46,46 0 0 1 -60.74409,-23.26296" />
    <path
       style="fill:none;stroke:#f0d58a;stroke-width:6;stroke-dasharray:none;stroke-opacity:1"
       id="path7"
       d="M 178.68548,70.603469 A 21,21 0 0 1 159.65302,82.728485 21,21 0 0 1 140.62055,70.603469"
       transform="rotate(10)" />
    <circle
       style="fill:#c2394b;fill-opacity:1;stroke:#f0d58a;stroke-width:4.6;stroke-dasharray:none;stroke-opacity:1"
       id="path8"
       cx="159.65302"
       cy="61.728485"
       r="10.476966"
       transform="rotate(10)" />
    <path
       style="fill:none;stroke:#f0d58a;stroke-width:6;stroke-dasharray:none;stroke-opacity:1"
       id="path9"
       d="M 159.45141,89.710907 A 20.372917,20.372917 0 0 1 139.07849,110.08382"
       transform="rotate(10)" />
    <path
       style="fill:none;stroke:#f0d58a;stroke-width:6;stroke-dasharray:none;stroke-opacity:1"
       id="path9-6"
       d="m -159.7962,89.710907 a 20.372917,20.372917 0 0 1 -20.37291,20.372913"
       transform="matrix(-0.98480775,-0.17364818,-0.17364818,0.98480775,0,0)" />
  </g>
</svg>
