<?xml version="1.0" encoding="UTF-8" standalone="no"?>
<!-- Created with Inkscape (http://www.inkscape.org/) -->

<svg
   width="18.378336mm"
   height="8.1929674mm"
   viewBox="0 0 18.378336 8.1929674"
   version="1.1"
   id="svg1"
   xmlns="http://www.w3.org/2000/svg"
   xmlns:svg="http://www.w3.org/2000/svg">
  <defs
     id="defs1" />
  <g
     id="layer1"
     transform="translate(-37.621802,-131.88322)">
    <g
       id="g3">
      <path
         style="fill:#c2394b;fill-opacity:1;stroke:#c2394b;stroke-width:0.104474;stroke-dasharray:none;stroke-opacity:1"
         d="m 37.629599,140.02454 c 7.321397,-1.10483 16.812315,-0.88191 17.758673,-0.71485"
         id="path16" />
      <path
         style="font-size:8.18169px;font-family:'Mr De Haviland';-inkscape-font-specification:'Mr De Haviland, Normal';fill:#ede6de;stroke:#ede6de;stroke-width:0.1"
         d="m 41.893941,132.23592 q -0.04091,0.11455 -1.505431,2.80632 0.310904,0.0327 0.597263,0.14727 1.06362,-0.66271 1.971788,-1.50543 0.916349,-0.85089 1.325434,-1.66906 0.0082,-0.0818 0.07364,-0.0818 0.07363,0 0.155452,0.0409 0.09,0.0409 0.09,0.0982 -0.319086,0.78544 -1.276344,1.6527 -0.957258,0.85908 -2.143603,1.5627 0.883623,0.47454 0.883623,1.67725 0,0.35181 -0.09,0.64635 -0.09,0.29455 -0.171816,0.40909 l -0.09,0.11454 q -0.06545,0 -0.06545,-0.0818 l 0.04909,-0.15546 q 0.114543,-0.35181 0.114543,-0.6709 0,-1.24361 -0.932713,-1.76724 -0.449992,0.24545 -0.981802,0.4909 -0.670899,1.21907 -1.022712,1.81634 -0.05727,0.13909 -0.155452,0.17999 -0.09,0.0409 -0.188179,0.0409 -0.09818,0 -0.09818,-0.0327 l 0.989985,-1.81634 q -0.539992,0.19636 -0.899986,0.19636 -0.466357,0 -0.466357,-0.35999 0,-0.36 0.613627,-0.65454 0.621809,-0.30272 1.366342,-0.30272 l 1.44816,-2.65905 q 0.02455,-0.0654 0.14727,-0.10636 0.130907,-0.0491 0.196361,-0.0491 0.06545,0 0.06545,0.0327 z m -2.102694,2.96178 q -0.572719,0 -1.006348,0.21272 -0.43363,0.21272 -0.43363,0.50726 0,0.25364 0.319086,0.25364 0.327268,0 0.850896,-0.21273 l 0.409084,-0.75271 q -0.04909,-0.008 -0.139088,-0.008 z m 0.490901,0.0491 q -0.220906,0.40908 -0.269996,0.49908 0.253633,-0.12273 0.679081,-0.37636 -0.196361,-0.0818 -0.409085,-0.12272 z m 3.632674,1.69361 q -0.04909,0 -0.04909,-0.0573 l 0.02454,-0.0573 q 0.14727,-0.13909 0.14727,-0.23727 0,-0.12272 -0.130907,-0.12272 -0.286359,0 -0.77726,0.4009 -0.48272,0.39272 -0.48272,0.70363 0,0.1309 0.171816,0.1309 0.171815,0 0.392721,-0.13909 0.229087,-0.14727 0.384539,-0.28636 0.163634,-0.14727 0.179997,-0.14727 0.08182,0.008 0.08182,0.0818 0,0.0327 -0.130907,0.21273 -0.122725,0.17999 -0.122725,0.28635 0,0.0818 0.130907,0.0818 0.139089,0 0.48272,-0.15545 0.343631,-0.16363 0.605445,-0.32727 l 0.261814,-0.16363 q 0.0082,0.0164 0.0082,0.0654 0,0.0491 -0.07363,0.0818 -1.104528,0.75271 -1.538158,0.75271 -0.212723,0 -0.212723,-0.21272 0,-0.09 0.03273,-0.18818 -0.05727,0.0654 -0.343631,0.20454 -0.278177,0.13091 -0.499083,0.13091 -0.220905,0 -0.220905,-0.20454 0,-0.48272 0.670898,-0.9818 0.670899,-0.50727 1.129073,-0.50727 0.269996,0 0.269996,0.22909 0,0.1309 -0.163634,0.27818 -0.163633,0.14727 -0.229087,0.14727 z m 1.153614,1.10452 q -0.368176,0 -0.368176,-0.4009 0,-0.53181 0.572718,-1.52179 0.5809,-0.99817 1.317252,-1.78361 0.744534,-0.79363 1.169982,-0.79363 0.155452,0 0.155452,0.22091 0,0.34363 -0.5809,1.12089 -0.572718,0.77726 -1.235435,1.45634 -0.662717,0.67908 -1.022711,0.93271 -0.01636,0.13091 -0.01636,0.18 0,0.0409 0.0082,0.0982 0.0082,0.0573 0.06545,0.14727 0.05727,0.09 0.188178,0.09 0.139089,0 0.48272,-0.15545 0.343631,-0.16363 0.605445,-0.32727 l 0.261814,-0.16363 q 0.0082,0.0164 0.0082,0.0654 0,0.0491 -0.07363,0.0818 -1.104528,0.75271 -1.538158,0.75271 z m 2.552687,-4.08266 q -0.0082,-0.18 -0.106362,-0.18 -0.253632,0 -0.769079,0.57272 -0.515446,0.57272 -0.998166,1.37453 -0.482719,0.79362 -0.62999,1.36634 0.343631,-0.27818 0.883623,-0.81817 0.539991,-0.53999 1.063619,-1.23544 0.523629,-0.69544 0.556355,-1.07998 z m 0.270003,1.45634 q 0.122725,0 0.122725,0.12273 0,0.12272 -0.114543,0.25363 -0.114544,0.12272 -0.253633,0.12272 -0.114544,0 -0.114544,-0.15545 0,-0.16363 0.130908,-0.25363 0.130907,-0.09 0.229087,-0.09 z m -0.769079,1.07998 q 0.04091,-0.0654 0.114544,-0.0654 0.07364,0 0.14727,0.0736 0,0.0327 -0.106362,0.14727 -0.106362,0.11454 -0.359994,0.51544 -0.253633,0.39272 -0.253633,0.52363 0,0.0818 0.122726,0.0982 0.163633,0 0.507264,-0.15545 0.343631,-0.16363 0.605446,-0.32727 l 0.261814,-0.16363 q 0.0082,0.0164 0.0082,0.0654 0,0.0491 -0.07363,0.0818 -1.104528,0.75271 -1.538158,0.75271 -0.212724,0 -0.212724,-0.21272 0,-0.21272 0.229088,-0.58908 0.237269,-0.38454 0.548173,-0.74454 z m 0.80181,0.79363 q 0.155452,-0.09 0.409084,-0.28636 0.621809,-0.4909 0.662717,-0.4909 0.122726,0 0.122726,0.10636 0,0.10636 -0.130908,0.32727 -0.122725,0.2209 -0.286359,0.45817 -0.155452,0.23727 -0.179997,0.28636 0.0082,0.008 0.03273,0.008 0.03273,0 0.327267,-0.21272 0.294541,-0.22091 0.613627,-0.45818 0.319086,-0.24545 0.376358,-0.27817 0.05727,-0.0409 0.106362,-0.0409 0.09818,0.008 0.09818,0.11454 0,0.0409 -0.278177,0.41727 -0.278178,0.36817 -0.278178,0.47454 0,0.0736 0.171816,0.0736 0.179997,0 0.523628,-0.15545 0.343631,-0.16363 0.605445,-0.32727 l 0.261814,-0.16363 q 0.0082,0.0164 0.0082,0.0654 0,0.0491 -0.07363,0.0818 -1.104529,0.75271 -1.538158,0.75271 -0.253633,0 -0.253633,-0.19636 0,-0.18818 0.106362,-0.35999 0.114544,-0.17182 0.196361,-0.28636 0.08182,-0.12273 0.08182,-0.13091 -0.376358,0.27 -0.891804,0.64636 -0.515447,0.37635 -0.5809,0.37635 -0.04909,0 -0.04909,-0.11454 0,-0.11454 0.319085,-0.59726 0.327268,-0.48272 0.327268,-0.51545 0,-0.0327 -0.01636,-0.0327 l -0.08182,0.0409 -0.409085,0.32727 q -0.04091,0.0327 -0.155452,0.10636 -0.114544,0.0736 -0.14727,0.0736 -0.02454,0 -0.02454,-0.0327 0,-0.0409 0.02454,-0.0573 z m 4.868109,0.24545 0.670899,-0.39272 q 0.0082,0.0164 0.0082,0.0654 0,0.0491 -0.07364,0.0818 -1.11271,0.74453 -1.587248,0.74453 -0.409084,0 -0.409084,-0.53999 0,-0.22091 0.07363,-0.4009 0.07364,-0.18818 0.237269,-0.18818 0.564536,0 0.875441,-0.17182 0.319086,-0.17181 0.319086,-0.35181 0,-0.18818 -0.261814,-0.18818 -0.589082,0 -1.49725,1.06362 -0.278177,0.52363 -0.417266,0.80181 -0.04091,0.0736 -0.114544,0.0736 -0.163633,0 -0.163633,-0.11454 0,-0.0491 0.03273,-0.11454 l 0.728171,-1.27635 q 0.695443,-1.22725 1.423614,-2.20905 0.72817,-0.98181 1.096346,-0.98181 0.122726,0 0.171816,0.11455 0.02454,0.0409 0.02454,0.0982 0,0.29454 -0.507265,0.92453 -0.507265,0.62999 -0.949076,1.06362 -0.441811,0.43363 -0.899986,0.84271 l -0.229087,0.40909 q 0.883622,-0.89999 1.538158,-0.89999 0.376357,0 0.376357,0.24545 0,0.27 -0.425448,0.53999 -0.417266,0.27 -1.047256,0.27 -0.09,0.1309 -0.09,0.29454 0,0.45817 0.359995,0.45817 0.261814,0 0.711807,-0.24545 0.01636,-0.0164 0.02455,-0.0164 z m 0.867259,-3.79631 q 0,-0.0818 -0.04091,-0.0818 -0.449993,0 -1.873607,2.5036 0.719988,-0.66272 1.317252,-1.34998 0.597263,-0.69545 0.597263,-1.07181 z m 1.112713,3.19905 q -0.04909,0 -0.04909,-0.0573 l 0.02455,-0.0573 q 0.14727,-0.13909 0.14727,-0.23727 0,-0.12272 -0.130907,-0.12272 -0.286359,0 -0.77726,0.4009 -0.48272,0.39272 -0.48272,0.70363 0,0.1309 0.171815,0.1309 0.171816,0 0.392721,-0.13909 0.229088,-0.14727 0.38454,-0.28636 0.163634,-0.14727 0.179997,-0.14727 0.08182,0.008 0.08182,0.0818 0,0.0327 -0.130907,0.21273 -0.122725,0.17999 -0.122725,0.28635 0,0.0818 0.130907,0.0818 0.139088,0 0.482719,-0.15545 0.343631,-0.16363 0.605445,-0.32727 l 0.261814,-0.16363 q 0.0082,0.0164 0.0082,0.0654 0,0.0491 -0.07363,0.0818 -1.104528,0.75271 -1.538158,0.75271 -0.212724,0 -0.212724,-0.21272 0,-0.09 0.03273,-0.18818 -0.05727,0.0654 -0.343631,0.20454 -0.278177,0.13091 -0.499083,0.13091 -0.220906,0 -0.220906,-0.20454 0,-0.48272 0.670899,-0.9818 0.670898,-0.50727 1.129073,-0.50727 0.269996,0 0.269996,0.22909 0,0.1309 -0.163634,0.27818 -0.163634,0.14727 -0.229087,0.14727 z"
         id="text2"
         aria-label="Kalinka" />
    </g>
  </g>
</svg>
